<?xml version="1.0" ?><svg xmlns="http://www.w3.org/2000/svg" xmlns:xlink="http://www.w3.org/1999/xlink" version="1.1" viewBox="0 0 512 512" style="enable-background:new 0 0 512 512;" xml:space="preserve"><g id="_x34_9_x2C__pencil_x2C__draw_x2C__edit_x2C__writing_x2C__miscellaneous_x2C__Tools_and_utensils"><g><g><path style="fill:#3A98FF;" d="M484.089,419.6c-3.871-3.938-10.203-3.995-14.142-0.124l-52.706,51.794     c-3.939,3.871-3.995,10.203-0.124,14.142c3.872,3.939,10.204,3.995,14.142,0.124l52.706-51.794     C487.904,429.871,487.96,423.538,484.089,419.6z"/><path style="fill:#3A98FF;" d="M133.836,162.747c-3.871-3.938-10.203-3.995-14.142-0.124c-3.939,3.871-3.995,10.203-0.124,14.142     l237.586,241.77c3.872,3.939,10.204,3.995,14.142,0.124c3.939-3.871,3.995-10.203,0.124-14.142L133.836,162.747z"/><path style="fill:#3A98FF;" d="M414.087,362.59l-237.586-241.77c-3.871-3.938-10.203-3.996-14.142-0.124     c-3.939,3.871-3.995,10.203-0.124,14.142l237.586,241.77c3.872,3.939,10.204,3.995,14.142,0.124     C417.902,372.861,417.958,366.529,414.087,362.59z"/></g><g><path style="fill:#283954;" d="M510.569,497.998l-51.32-173.028c-0.399-1.427-1.251-3.041-2.493-4.306L222.595,82.372     c2.851-11.403-0.127-23.968-8.976-32.974c-8.822-8.976-21.343-12.165-32.794-9.53l-17.561-17.865     C136.276-5.45,91.986-5.838,64.534,21.141L21.863,63.072C-5.59,90.058-5.977,134.348,21,161.802l17.539,17.852     c-2.853,11.404,0.124,23.973,8.975,32.979c8.826,8.98,21.353,12.168,32.807,9.528L314.49,460.462     c1.246,1.285,2.941,2.229,4.579,2.658l179.358,47.39c3.472,0.919,7.202-0.097,9.731-2.704     C510.675,505.213,511.597,501.463,510.569,497.998z M98.183,211.804l113.732-111.765l223.564,227.508L321.747,439.311     L98.183,211.804z M35.882,77.336l42.67-41.93c19.59-19.248,51.193-18.973,70.449,0.617l13.956,14.197L49.221,161.989     l-13.956-14.204C16.016,128.195,16.294,96.591,35.882,77.336z M61.778,198.615c-5.784-5.885-5.698-15.324,0.184-21.105     L178.249,63.234c5.87-5.767,15.338-5.686,21.105,0.184c5.784,5.885,5.698,15.324-0.184,21.105L82.883,198.798     C77.014,204.566,67.545,204.483,61.778,198.615z M341.163,448.272l103.601-101.804l41.572,140.162L341.163,448.272z"/></g></g></g><g id="Layer_1"/></svg>